<?xml version="1.0" standalone="no"?>
<!DOCTYPE svg PUBLIC "-//W3C//DTD SVG 20010904//EN"
 "http://www.w3.org/TR/2001/REC-SVG-20010904/DTD/svg10.dtd">
<svg version="1.0" xmlns="http://www.w3.org/2000/svg"
 width="32.000000pt" height="32.000000pt" viewBox="0 0 32.000000 32.000000"
 preserveAspectRatio="xMidYMid meet">

<g transform="translate(0.000000,32.000000) scale(0.100000,-0.100000)"
fill="#000000" stroke="none">
<path d="M146 312 c-7 -12 -5 -125 1 -118 6 5 11 126 7 126 -2 0 -5 -4 -8 -8z"/>
<path d="M84 286 c-3 -7 -1 -29 5 -47 9 -33 9 -33 8 13 -2 51 -4 57 -13 34z"/>
<path d="M196 292 c-3 -5 -3 -26 1 -46 4 -23 9 -33 14 -25 4 7 4 22 0 33 -5
12 -6 27 -4 34 5 14 -3 17 -11 4z"/>
<path d="M57 173 c-10 -10 -8 -68 3 -97 9 -24 8 -26 -20 -26 -19 0 -30 -5 -30
-14 0 -30 27 -37 146 -34 115 3 119 4 122 26 3 18 -1 22 -22 22 -34 0 -33 16
1 25 38 9 53 23 53 51 0 41 -34 54 -146 54 -55 0 -104 -3 -107 -7z m173 -49
c0 -63 -12 -74 -84 -74 -71 0 -76 4 -76 71 l0 39 80 0 80 0 0 -36z m65 16 c4
-12 2 -27 -5 -34 -12 -16 -50 -28 -50 -16 0 4 9 10 20 13 27 7 25 35 -2 47
-22 8 -22 9 4 9 18 1 29 -5 33 -19z m-27 -12 c-6 -18 -28 -21 -28 -4 0 9 7 16
16 16 9 0 14 -5 12 -12z m0 -100 c-6 -18 -230 -18 -235 0 -4 9 24 12 117 12
93 0 121 -3 118 -12z"/>
</g>
</svg>
