<?xml version="1.0" standalone="no"?>
<!DOCTYPE svg PUBLIC "-//W3C//DTD SVG 20010904//EN"
 "http://www.w3.org/TR/2001/REC-SVG-20010904/DTD/svg10.dtd">
<svg version="1.0" xmlns="http://www.w3.org/2000/svg"
 width="193.000000pt" height="43.000000pt" viewBox="0 0 193.000000 43.000000"
 preserveAspectRatio="xMidYMid meet">

<g transform="translate(0.000000,43.000000) scale(0.100000,-0.100000)"
fill="#000000" stroke="none">
<path d="M1146 362 c-7 -12 -5 -125 1 -118 6 5 11 126 7 126 -2 0 -5 -4 -8 -8z"/>
<path d="M1084 336 c-3 -7 -1 -29 5 -47 9 -33 9 -33 8 13 -2 51 -4 57 -13 34z"/>
<path d="M1196 342 c-3 -5 -3 -26 1 -46 4 -23 9 -33 14 -25 4 7 4 22 0 33 -5
12 -6 27 -4 34 5 14 -3 17 -11 4z"/>
<path d="M823 333 c-7 -3 -13 -16 -13 -29 0 -18 -5 -24 -23 -24 -36 0 -58 -22
-59 -58 -1 -43 26 -72 69 -72 19 0 36 6 39 13 3 8 4 50 2 94 -2 58 -6 79 -15
76z m-15 -121 c3 -30 1 -33 -20 -30 -23 3 -34 27 -24 54 11 28 41 11 44 -24z"/>
<path d="M1648 329 c-25 -14 -27 -179 -3 -179 11 0 15 12 15 50 0 43 3 50 20
50 11 0 20 7 20 15 0 9 -9 15 -21 15 -27 0 -19 24 10 28 12 2 20 9 18 15 -5
16 -38 19 -59 6z"/>
<path d="M455 295 c-65 -64 4 -172 89 -139 27 10 20 35 -8 28 -39 -9 -66 11
-66 51 0 38 27 61 60 50 22 -7 38 14 19 26 -26 17 -69 9 -94 -16z"/>
<path d="M1372 310 c-24 -10 -42 -47 -42 -86 0 -51 69 -89 124 -68 24 9 7 35
-19 28 -38 -9 -65 12 -65 51 0 40 27 60 67 50 20 -5 24 -2 21 12 -4 21 -50 28
-86 13z"/>
<path d="M106 273 c-3 -4 -6 -33 -6 -65 0 -45 3 -58 15 -58 11 0 15 12 15 51
0 43 3 50 18 47 13 -2 18 -15 20 -51 2 -33 7 -47 18 -47 10 0 14 13 14 50 0
36 4 50 14 50 17 0 26 -22 26 -66 0 -24 5 -34 15 -34 19 0 21 103 3 117 -14
11 -142 15 -152 6z"/>
<path d="M290 268 c0 -7 9 -33 21 -57 21 -48 19 -71 -6 -71 -8 0 -15 -7 -15
-15 0 -16 27 -20 47 -7 12 8 55 96 68 140 5 17 2 22 -13 22 -15 0 -21 -9 -26
-35 -9 -44 -20 -45 -32 -3 -9 32 -44 53 -44 26z"/>
<path d="M600 260 c-11 -11 -20 -31 -20 -45 0 -29 32 -65 58 -65 34 0 62 29
62 65 0 57 -60 85 -100 45z m65 -29 c7 -24 -3 -51 -21 -51 -20 0 -34 31 -23
52 13 23 36 23 44 -1z"/>
<path d="M890 260 c-43 -43 -9 -114 52 -108 43 4 48 26 7 30 -50 5 -49 28 1
28 38 0 41 2 35 23 -15 47 -61 61 -95 27z m60 -20 c0 -5 -9 -10 -20 -10 -11 0
-20 5 -20 10 0 6 9 10 20 10 11 0 20 -4 20 -10z"/>
<path d="M1500 265 c0 -9 9 -15 24 -15 14 0 28 -4 31 -10 3 -5 -3 -10 -14 -10
-37 0 -51 -12 -51 -41 0 -31 25 -44 71 -37 21 3 24 9 27 53 3 38 -1 52 -14 62
-25 18 -74 17 -74 -2z m60 -70 c0 -8 -9 -15 -20 -15 -20 0 -26 11 -13 23 12
13 33 7 33 -8z"/>
<path d="M1740 260 c-43 -43 -9 -114 52 -108 43 4 48 26 7 30 -50 5 -49 28 1
28 38 0 41 2 35 23 -15 47 -61 61 -95 27z m60 -20 c0 -5 -9 -10 -20 -10 -11 0
-20 5 -20 10 0 6 9 10 20 10 11 0 20 -4 20 -10z"/>
<path d="M1057 223 c-10 -10 -8 -68 3 -97 9 -24 8 -26 -20 -26 -19 0 -30 -5
-30 -14 0 -30 27 -37 146 -34 115 3 119 4 122 26 3 18 -1 22 -22 22 -34 0 -33
16 1 25 38 9 53 23 53 51 0 41 -34 54 -146 54 -55 0 -104 -3 -107 -7z m173
-49 c0 -63 -12 -74 -84 -74 -71 0 -76 4 -76 71 l0 39 80 0 80 0 0 -36z m65 16
c4 -12 2 -27 -5 -34 -12 -16 -50 -28 -50 -16 0 4 9 10 20 13 27 7 25 35 -2 47
-22 8 -22 9 4 9 18 1 29 -5 33 -19z m-27 -12 c-6 -18 -28 -21 -28 -4 0 9 7 16
16 16 9 0 14 -5 12 -12z m0 -100 c-6 -18 -230 -18 -235 0 -4 9 24 12 117 12
93 0 121 -3 118 -12z"/>
</g>
</svg>
